<?xml version="1.0" encoding="UTF-8"?>
<!DOCTYPE svg PUBLIC "-//W3C//DTD SVG 1.1//EN" "http://www.w3.org/Graphics/SVG/1.1/DTD/svg11.dtd">
<!-- Creator: CorelDRAW X6 -->
<svg xmlns="http://www.w3.org/2000/svg" xml:space="preserve" width="2.88889in" height="0.61111in" version="1.1" style="shape-rendering:geometricPrecision; text-rendering:geometricPrecision; image-rendering:optimizeQuality; fill-rule:evenodd; clip-rule:evenodd"
viewBox="0 0 2889 611"
 xmlns:xlink="http://www.w3.org/1999/xlink">
 <defs>
  <style type="text/css">
   <![CDATA[
    .fil1 {fill:#231F1F;fill-rule:nonzero}
    .fil2 {fill:#6D6E70;fill-rule:nonzero}
    .fil0 {fill:#E92126;fill-rule:nonzero}
   ]]>
  </style>
 </defs>
 <g id="__x0023_Layer_x0020_1">
  <metadata id="CorelCorpID_0Corel-Layer"/>
  <g id="_258950808">
   <polygon class="fil0" points="2641,80 2562,1 2404,159 2562,317 2641,239 2561,159 "/>
   <polygon class="fil0" points="2719,1 2641,80 2720,159 2641,238 2719,317 2877,160 "/>
   <polygon class="fil0" points="81,234 40,234 40,111 6,111 6,77 115,77 115,111 81,111 "/>
   <polygon class="fil0" points="175,112 175,138 222,138 222,173 175,173 175,200 224,200 224,235 134,235 134,77 224,77 224,112 "/>
   <path class="fil0" d="M367 130c-8,-11 -22,-17 -36,-17 -25,0 -42,19 -42,44 0,25 17,43 43,43 13,0 27,-6 35,-17l0 49c-14,4 -23,7 -36,7 -22,0 -43,-8 -59,-23 -17,-16 -25,-36 -25,-60 0,-22 8,-42 23,-58 16,-16 38,-25 60,-25 13,0 25,3 37,8l0 49z"/>
   <polygon class="fil0" points="497,138 497,77 538,77 538,235 497,235 497,170 438,170 438,235 397,235 397,77 438,77 438,138 "/>
   <path class="fil0" d="M682 130c-8,-11 -22,-17 -36,-17 -25,0 -42,19 -42,44 0,25 17,43 43,43 13,0 27,-6 35,-17l0 49c-14,4 -23,7 -36,7 -22,0 -43,-8 -59,-23 -17,-16 -25,-36 -25,-60 0,-22 8,-42 23,-58 15,-16 38,-25 60,-25 13,0 25,3 37,8l0 49z"/>
   <path class="fil0" d="M747 154c0,27 20,47 44,47 24,0 45,-20 45,-47 0,-22 -20,-42 -45,-42 -24,0 -45,20 -45,42zm132 0l0 0c0,51 -37,87 -87,87 -51,0 -87,-36 -87,-87 0,-48 42,-81 87,-81 45,0 87,34 87,81z"/>
   <polygon class="fil0" points="919,78 960,78 992,162 1026,78 1066,78 1090,236 1049,236 1038,145 1037,145 999,236 983,236 947,145 947,145 933,236 892,236 "/>
   <path class="fil1" d="M1199 119c-8,-6 -17,-10 -27,-11 -8,0 -18,4 -18,13 0,9 11,13 18,15l10 3c22,7 39,18 39,43 0,16 -4,32 -16,42 -12,10 -29,15 -45,15 -20,0 -39,-7 -55,-18l18 -33c10,9 22,16 36,16 10,0 20,-5 20,-16 0,-12 -16,-16 -25,-18 -26,-7 -43,-14 -43,-45 0,-32 23,-53 54,-53 16,0 35,5 49,13l-16 32z"/>
   <polygon class="fil1" points="1287,113 1287,139 1333,139 1333,174 1287,174 1287,201 1335,201 1335,236 1245,236 1246,78 1335,78 1335,113 "/>
   <path class="fil1" d="M1478 131c-8,-11 -22,-17 -36,-17 -25,0 -42,19 -42,44 0,25 17,43 43,43 13,0 27,-6 35,-17l0 49c-14,4 -23,7 -36,7 -22,0 -43,-8 -59,-23 -17,-16 -25,-36 -25,-60 0,-22 8,-42 23,-58 15,-16 38,-25 60,-25 13,0 25,3 37,8l0 49z"/>
   <path class="fil1" d="M1645 79l0 89c0,20 -1,40 -17,56 -13,13 -34,18 -52,18 -18,0 -39,-5 -52,-18 -16,-15 -16,-35 -16,-56l0 -89 41 0 0 83c0,20 1,43 28,43 26,0 28,-22 28,-43l0 -83 41 0z"/>
   <path class="fil1" d="M1716 150l4 0c13,0 28,-2 28,-20 0,-17 -15,-20 -28,-20l-4 0 0 39zm90 87l0 0 -51 0 -39 -61 0 0 0 61 -41 0 0 -158 61 0c31,0 55,15 55,49 0,22 -12,41 -35,45l49 65z"/>
   <polygon class="fil1" points="1822,237 1863,237 1863,79 1822,79 "/>
   <polygon class="fil1" points="1957,237 1916,237 1916,114 1882,114 1882,79 1991,79 1991,114 1957,114 "/>
   <polygon class="fil1" points="2010,237 2051,237 2052,79 2011,79 "/>
   <polygon class="fil1" points="2124,114 2124,140 2170,141 2170,175 2124,175 2124,202 2173,202 2172,237 2083,237 2083,79 2173,79 2173,114 "/>
   <path class="fil1" d="M2289 120c-8,-6 -17,-10 -27,-11 -8,0 -18,4 -18,13 0,9 11,13 18,15l10 3c22,7 39,18 39,43 0,16 -4,32 -16,42 -12,10 -29,15 -45,15 -20,0 -39,-7 -55,-18l18 -33c10,9 22,16 36,16 10,0 20,-5 20,-16 0,-12 -16,-16 -25,-18 -26,-7 -43,-14 -43,-45 0,-32 23,-53 54,-53 16,0 35,5 49,13l-16 32z"/>
   <path class="fil2" d="M1861 427c1,-1 2,-3 2,-5 0,-2 -1,-3 -3,-4 -2,0 -3,0 -4,1 -23,17 -37,27 -41,30 -20,13 -36,20 -46,20 -4,0 -7,-1 -10,-3 -4,-2 -5,-5 -5,-9 9,-4 17,-9 23,-15 4,-3 8,-6 11,-10 4,-4 6,-8 6,-13 0,-3 -1,-6 -4,-8 -3,-2 -6,-3 -9,-3 -9,0 -18,6 -30,18 0,0 -1,1 -1,1 0,-8 -7,-15 -20,-24 25,-19 37,-35 37,-50 0,-5 -2,-9 -6,-12 -4,-3 -8,-4 -13,-4 -13,0 -25,4 -37,11 -13,8 -27,23 -43,43 -5,1 -10,2 -15,3 -7,1 -14,3 -21,5 -15,5 -23,12 -23,20 0,10 14,14 26,16l-23 30 -2 3c0,0 0,0 0,0l-2 2 -9 12c0,0 -18,21 -18,23 0,4 2,6 5,6 3,0 5,-2 8,-5l19 -21c6,0 14,0 28,0 20,0 42,-4 66,-16 11,-5 20,-10 27,-16 -1,2 -1,5 -1,7 0,16 8,24 24,24 16,0 35,-7 57,-22 8,-5 23,-17 45,-35zm-98 5l0 0c7,-7 11,-8 12,-8 1,0 1,0 1,0 0,3 -4,9 -19,18 -1,0 -1,0 -2,1 1,-3 4,-7 7,-11zm-59 -62l0 0c13,-12 25,-18 36,-18 4,0 7,1 10,3 3,2 3,4 3,5 0,5 -3,11 -10,19 -5,5 -12,12 -23,21 -5,-1 -10,-3 -15,-4 -7,-2 -14,-3 -20,-3 9,-11 15,-18 19,-22zm-29 35l0 0c6,0 15,2 26,5 -3,1 -7,3 -12,5 -9,3 -18,5 -26,6l11 -16zm-41 15l0 0c-8,-2 -9,-4 -9,-4 0,0 1,-3 12,-5 10,-2 18,-4 24,-5l-12 17c-4,0 -8,-1 -14,-3zm74 38l0 0c-20,8 -34,14 -60,14 -7,0 -17,0 -23,0l28 -36c24,-4 45,-11 63,-22 2,0 6,2 12,6 6,4 9,8 9,11 0,9 -10,18 -29,26z"/>
   <path class="fil2" d="M2048 427c0,-5 -2,-14 -16,-14 -8,0 -17,2 -28,7 -4,2 -8,4 -12,6 57,-64 57,-65 57,-66 0,-5 -4,-6 -5,-6 -3,0 -5,2 -8,5 -31,34 -57,62 -76,83 0,0 -1,0 -1,0 -4,0 -14,1 -28,3 -15,2 -32,4 -43,5 0,0 0,0 0,-1 0,-7 -1,-15 -4,-24 -2,-8 -4,-16 -4,-22 -3,-19 5,-35 24,-48 18,-12 33,-19 47,-19 1,0 2,0 3,0l1 0c3,0 5,-1 7,-2 1,-1 2,-3 3,-6l0 -1 -1 -1c-2,-2 -6,-3 -11,-2 -1,0 -1,0 -3,1 -32,6 -57,19 -74,39 -1,1 -23,20 -1,85 0,1 1,2 1,2l-6 2 -1 1c0,0 0,0 0,0l-9 2c-15,4 -32,11 -49,20 -17,10 -32,24 -43,42 -6,16 -6,28 1,37 5,6 12,9 21,9 4,0 9,-1 14,-2 16,-4 33,-15 51,-33 18,-18 28,-40 32,-65 0,-1 0,-2 0,-2 5,-2 11,-2 18,-2 4,0 18,-2 32,-4 4,-1 8,-1 12,-2 -8,9 -14,16 -19,22 -37,43 -62,77 -76,101 0,0 -1,3 -8,12 -3,4 -4,8 -4,12 0,2 1,5 5,7 3,2 5,2 8,2 2,0 5,-1 7,-3 3,-2 4,-5 4,-8 0,-7 0,-9 0,-10 1,-8 13,-26 34,-55 22,-30 44,-54 64,-71 0,1 -1,3 -1,5 0,3 1,6 3,9 2,3 5,4 9,4 8,0 17,-3 30,-10 12,-6 22,-14 30,-22 8,-9 12,-16 12,-22zm-174 39l0 0c-5,23 -14,42 -28,56 -14,14 -28,24 -41,28 -12,4 -21,4 -26,-1 -6,-6 2,-20 10,-31 8,-11 21,-21 39,-32 18,-10 34,-17 46,-20 0,0 0,0 0,1zm140 -13l0 0c-11,9 -20,14 -26,14 -4,0 -6,-1 -7,-4 -1,-2 -1,-3 -2,-4 -1,-1 -2,-3 -6,-3 14,-12 24,-20 29,-23 7,-4 13,-6 20,-6 4,0 9,1 9,3 0,6 -6,14 -17,23z"/>
   <path class="fil2" d="M2402 418c-1,0 -3,0 -4,1 -23,17 -37,27 -41,30 -20,13 -36,20 -46,20 -4,0 -7,-1 -10,-3 -4,-2 -5,-5 -5,-9 9,-4 17,-9 23,-15 4,-3 8,-6 11,-10 1,-1 2,-3 3,-4 0,0 0,0 0,0 1,-1 2,-3 2,-5 0,-1 1,-2 1,-4 0,-3 -1,-6 -4,-8 -3,-2 -6,-3 -9,-3 -9,0 -18,6 -29,18 -9,9 -14,18 -16,27 -12,6 -22,10 -29,10 -12,0 -32,-5 -57,-15 4,-3 9,-6 15,-9 12,-6 25,-9 38,-9 2,0 4,0 8,1 4,1 7,1 9,1 6,0 9,-3 9,-9 0,-4 -2,-10 -14,-10 -14,0 -35,7 -63,22 -11,6 -22,12 -33,18 9,-12 30,-37 72,-91 76,-95 76,-100 76,-103l0 -2 -14 0 -1 0c-4,3 -9,6 -16,8 -4,2 -8,4 -8,7 0,3 0,5 1,7l0 1 1 0c3,1 5,2 7,3 -8,14 -38,53 -90,117 -5,6 -10,12 -14,17 -2,0 -3,0 -3,1 -9,9 -20,19 -33,28 -19,14 -28,16 -32,16 -2,0 -4,-1 -6,-2 11,-10 17,-21 17,-32 0,-8 -3,-17 -18,-17 -11,0 -25,6 -41,19 -16,14 -25,27 -25,39 0,7 3,15 18,15 8,0 16,-2 26,-7 6,-3 11,-6 13,-9 4,3 9,5 15,5 9,0 21,-6 38,-18 -12,14 -21,25 -27,32l-3 3 11 2 1 -1c8,-5 15,-11 23,-17 12,-8 22,-13 30,-13 1,0 5,1 25,7 16,5 27,8 34,8 12,0 27,-4 43,-13 2,11 10,17 23,17 16,0 35,-7 57,-22 8,-5 23,-17 45,-35 1,-1 2,-3 2,-5 0,-2 -1,-3 -3,-4zm-97 14l0 0c7,-7 11,-8 12,-8 1,0 1,0 1,0 0,2 -1,4 -4,8 -6,4 -11,8 -16,11 1,-3 4,-6 7,-10zm-247 39l0 0c-3,0 -7,-1 -7,-9 0,-10 9,-20 28,-30 -1,4 -2,8 -2,13 0,6 2,11 5,16 -9,7 -17,10 -24,10zm33 -18l0 0c-2,-2 -2,-6 -2,-12 0,-4 2,-8 5,-12 3,-4 6,-5 10,-5 2,0 3,1 3,3 0,8 -5,17 -16,26z"/>
   <path class="fil2" d="M1609 472l-1609 0 0 12 1615 0 0 -11c-2,-1 -4,-1 -6,-1z"/>
  </g>
 </g>
</svg>
